HIERARCHY
ROOT hip
{
  OFFSET 0 0 0
  CHANNELS 6 Xposition Yposition Zposition Zrotation Yrotation Xrotation
  JOINT abdomen
  {
    OFFSET 0 20.6881 -0.73152
    CHANNELS 3 Zrotation Xrotation Yrotation
    JOINT chest
    {
      OFFSET 0 11.7043 -0.48768
      CHANNELS 3 Zrotation Xrotation Yrotation
      JOINT neck
      {
        OFFSET 0 22.1894 -2.19456
        CHANNELS 3 Zrotation Xrotation Yrotation
        JOINT head
        {
          OFFSET -0.24384 7.07133 1.2192
          CHANNELS 3 Zrotation Xrotation Yrotation
          JOINT leftEye
          {
            OFFSET 4.14528 8.04674 8.04672
            CHANNELS 3 Zrotation Xrotation Yrotation
            End Site
            {
              OFFSET 1 0 0
            }
          }
          JOINT rightEye
          {
            OFFSET -3.6576 8.04674 8.04672
            CHANNELS 3 Zrotation Xrotation Yrotation
            End Site
            {
              OFFSET 1 0 0
            }
          }
        }
      }
      JOINT rCollar
      {
        OFFSET -2.68224 19.2634 -4.8768
        CHANNELS 3 Zrotation Xrotation Yrotation
        JOINT rShldr
        {
          OFFSET -8.77824 -1.95073 1.46304
          CHANNELS 3 Zrotation Xrotation Yrotation
          JOINT rForeArm
          {
            OFFSET -28.1742 -1.7115 0.48768
            CHANNELS 3 Zrotation Xrotation Yrotation
            JOINT rHand
            {
              OFFSET -22.5879 0.773209 7.07136
              CHANNELS 3 Zrotation Xrotation Yrotation
              JOINT rThumb1
              {
                OFFSET -1.2192 -0.487915 3.41376
                CHANNELS 3 Zrotation Xrotation Yrotation
                JOINT rThumb2
                {
                  OFFSET -3.37035 -0.52449 3.41376
                  CHANNELS 3 Zrotation Xrotation Yrotation
                  End Site
                  {
                    OFFSET -1.78271 -1.18214 1.43049
                  }
                }
              }
              JOINT rIndex1
              {
                OFFSET -7.75947 0.938293 5.60832
                CHANNELS 3 Zrotation Xrotation Yrotation
                JOINT rIndex2
                {
                  OFFSET -2.54057 -0.884171 1.56538
                  CHANNELS 3 Zrotation Xrotation Yrotation
                  End Site
                  {
                    OFFSET -1.62519 -0.234802 1.16502
                  }
                }
              }
              JOINT rMid1
              {
                OFFSET -8.24714 1.18213 3.41376
                CHANNELS 3 Zrotation Xrotation Yrotation
                JOINT rMid2
                {
                  OFFSET -3.10165 -0.590103 1.0647
                  CHANNELS 3 Zrotation Xrotation Yrotation
                  End Site
                  {
                    OFFSET -2.48547 -0.328903 0.83742
                  }
                }
              }
              JOINT rRing1
              {
                OFFSET -8.82822 0.546677 1.51678
                CHANNELS 3 Zrotation Xrotation Yrotation
                JOINT rRing2
                {
                  OFFSET -2.60934 -0.819778 -0.0198488
                  CHANNELS 3 Zrotation Xrotation Yrotation
                  End Site
                  {
                    OFFSET -2.33842 -0.294052 0.168128
                  }
                }
              }
              JOINT rPinky1
              {
                OFFSET -8.27202 -0.0477905 -0.4584
                CHANNELS 3 Zrotation Xrotation Yrotation
                JOINT rPinky2
                {
                  OFFSET -1.82734 -0.647385 -0.700984
                  CHANNELS 3 Zrotation Xrotation Yrotation
                  End Site
                  {
                    OFFSET -1.69225 -0.51767 -0.607171
                  }
                }
              }
            }
          }
        }
      }
      JOINT lCollar
      {
        OFFSET 2.68224 19.2634 -4.8768
        CHANNELS 3 Zrotation Xrotation Yrotation
        JOINT lShldr
        {
          OFFSET 8.77824 -1.95073 1.46304
          CHANNELS 3 Zrotation Xrotation Yrotation
          JOINT lForeArm
          {
            OFFSET 28.1742 -1.7115 0.48768
            CHANNELS 3 Zrotation Xrotation Yrotation
            JOINT lHand
            {
              OFFSET 22.5879 0.773209 7.07136
              CHANNELS 3 Zrotation Xrotation Yrotation
              JOINT lThumb1
              {
                OFFSET 1.2192 -0.487915 3.41376
                CHANNELS 3 Zrotation Xrotation Yrotation
                JOINT lThumb2
                {
                  OFFSET 3.37035 -0.52449 3.41376
                  CHANNELS 3 Zrotation Xrotation Yrotation
                  End Site
                  {
                    OFFSET 1.78271 -1.18214 1.43049
                  }
                }
              }
              JOINT lIndex1
              {
                OFFSET 7.75947 0.938293 5.60832
                CHANNELS 3 Zrotation Xrotation Yrotation
                JOINT lIndex2
                {
                  OFFSET 2.54057 -0.884171 1.56538
                  CHANNELS 3 Zrotation Xrotation Yrotation
                  End Site
                  {
                    OFFSET 1.62519 -0.234802 1.16502
                  }
                }
              }
              JOINT lMid1
              {
                OFFSET 8.24714 1.18213 3.41376
                CHANNELS 3 Zrotation Xrotation Yrotation
                JOINT lMid2
                {
                  OFFSET 3.10165 -0.590103 1.0647
                  CHANNELS 3 Zrotation Xrotation Yrotation
                  End Site
                  {
                    OFFSET 2.48547 -0.328903 0.83742
                  }
                }
              }
              JOINT lRing1
              {
                OFFSET 8.82822 0.546677 1.51678
                CHANNELS 3 Zrotation Xrotation Yrotation
                JOINT lRing2
                {
                  OFFSET 2.60934 -0.819778 -0.0198488
                  CHANNELS 3 Zrotation Xrotation Yrotation
                  End Site
                  {
                    OFFSET 2.33842 -0.294052 0.168128
                  }
                }
              }
              JOINT lPinky1
              {
                OFFSET 8.27202 -0.0477905 -0.4584
                CHANNELS 3 Zrotation Xrotation Yrotation
                JOINT lPinky2
                {
                  OFFSET 1.82734 -0.647385 -0.700984
                  CHANNELS 3 Zrotation Xrotation Yrotation
                  End Site
                  {
                    OFFSET 1.69225 -0.51767 -0.607171
                  }
                }
              }
            }
          }
        }
      }
    }
  }
  JOINT rButtock
  {
    OFFSET -8.77824 4.35084 1.2192
    CHANNELS 3 Zrotation Xrotation Yrotation
    JOINT rThigh
    {
      OFFSET 0 -1.70687 -2.19456
      CHANNELS 3 Zrotation Xrotation Yrotation
      JOINT rShin
      {
        OFFSET 0 -36.8199 0.73152
        CHANNELS 3 Zrotation Xrotation Yrotation
        JOINT rFoot
        {
          OFFSET 0.73152 -45.1104 -5.12064
          CHANNELS 3 Zrotation Xrotation Yrotation
          End Site
          {
            OFFSET -1.1221 -3.69964 12.103
          }
        }
      }
    }
  }
  JOINT lButtock
  {
    OFFSET 8.77824 4.35084 1.2192
    CHANNELS 3 Zrotation Xrotation Yrotation
    JOINT lThigh
    {
      OFFSET 0 -1.70687 -2.19456
      CHANNELS 3 Zrotation Xrotation Yrotation
      JOINT lShin
      {
        OFFSET 0 -36.8199 0.73152
        CHANNELS 3 Zrotation Xrotation Yrotation
        JOINT lFoot
        {
          OFFSET -0.73152 -45.1104 -5.12064
          CHANNELS 3 Zrotation Xrotation Yrotation
          End Site
          {
            OFFSET 1.1221 -3.69964 12.103
          }
        }
      }
    }
  }
}
MOTION
Frames:	6
Frame Time:	0.00833333
-42.7033 83.07 -32.498 -158.24 65.9475 -140.061 -15.6582 21.7578 6.11212 -4.18709 -1.85253 1.2485 -0.347442 -4.10445 -3.90965 12.4924 33.386 -6.64421 -0.0 0.0 0.0 -0.0 0.0 0.0 -6.65641e-13 1.66602e-12 9.09352e-13 1.19349 55.2634 47.7543 -26.6848 -25.3364 59.8113 -12.634 -66.7431 -19.0833 -4.89558e-09 6.32838e-10 -8.21488e-10 -8.3776e-09 1.40942e-09 -1.64238e-09 -4.89556e-09 6.32835e-10 -8.21495e-10 7.73091 5.47488 0.417314 -4.89557e-09 6.3284e-10 -8.21478e-10 2.90554 0.965183 0.102902 -4.89557e-09 6.32838e-10 -8.21484e-10 10.2786 0.731801 0.0259123 -4.89558e-09 6.32839e-10 -8.21475e-10 2.22167 -0.733487 -0.20892 -6.65765e-13 1.66593e-12 9.09165e-13 20.5609 39.5546 -112.844 16.3841 -9.04896 -30.4877 0.000162134 -0.366883 0.0515628 6.35961e-09 7.89725e-09 -2.97777e-09 1.09939e-08 1.36714e-08 -5.16953e-09 6.3596e-09 7.89725e-09 -2.97777e-09 -7.73091 5.47488 -0.417314 6.35961e-09 7.89724e-09 -2.97777e-09 -2.90554 0.965183 -0.102902 6.35961e-09 7.89725e-09 -2.97777e-09 -10.2786 0.731801 -0.0259123 6.35962e-09 7.89725e-09 -2.97778e-09 -2.22167 -0.733487 0.20892 -2.03217e-16 0.0 -3.88251e-19 0.798404 -18.2682 -8.0478 0.455689 9.37704 0.576309 -1.51156 -4.0404 -16.3887 2.03217e-16 0.0 3.88251e-19 9.73909 -43.7866 -10.0536 0.279118 34.1448 -0.500879 -0.626347 -9.36814 -5.35185
-42.7393 83.0686 -32.4781 -158.156 65.9548 -139.996 -15.6047 21.8309 6.11069 -4.25639 -1.92239 1.24501 -0.31824 -4.10074 -3.93126 12.7284 33.3942 -6.75938 -0.0 0.0 0.0 -0.0 0.0 0.0 -5.62284e-13 1.43058e-12 7.46104e-13 0.59946 55.2458 48.6521 -26.6069 -25.1031 59.4336 -11.6472 -65.5572 -18.0047 -4.16149e-09 6.61775e-10 -8.18251e-10 -7.11669e-09 1.42048e-09 -1.59933e-09 -4.16148e-09 6.61772e-10 -8.18254e-10 7.73091 5.47488 0.417314 -4.16149e-09 6.61777e-10 -8.18241e-10 2.90554 0.965183 0.102902 -4.16149e-09 6.61777e-10 -8.18246e-10 10.2786 0.731801 0.0259123 -4.16149e-09 6.61777e-10 -8.18236e-10 2.22167 -0.733487 -0.20892 -5.62427e-13 1.43053e-12 7.45936e-13 20.7387 39.4763 -112.895 16.4055 -9.06932 -30.5335 0.000241124 -0.45098 0.0633824 5.40256e-09 6.96534e-09 -2.76816e-09 9.33903e-09 1.20586e-08 -4.80529e-09 5.40255e-09 6.96534e-09 -2.76815e-09 -7.73091 5.47488 -0.417314 5.40256e-09 6.96534e-09 -2.76816e-09 -2.90554 0.965183 -0.102902 5.40255e-09 6.96534e-09 -2.76816e-09 -10.2786 0.731801 -0.0259123 5.40256e-09 6.96534e-09 -2.76817e-09 -2.22167 -0.733487 0.20892 -2.03217e-16 0.0 -3.88251e-19 0.812614 -18.2775 -8.0443 0.456301 9.38197 0.57707 -1.51422 -4.0734 -16.2984 2.03217e-16 0.0 3.88251e-19 9.67834 -43.8097 -10.2117 0.278758 34.1742 -0.502535 -0.573687 -9.375 -5.15286
-42.7787 83.0648 -32.4558 -158.074 65.8964 -139.93 -15.5433 21.9147 6.10029 -4.32701 -1.99952 1.23875 -0.285803 -4.10729 -3.96082 12.9816 33.4416 -6.89532 -0.0 0.0 0.0 -0.0 0.0 0.0 -4.26627e-13 1.13545e-12 5.58908e-13 -0.0756176 55.2594 49.6053 -26.5224 -24.8559 59.0429 -10.5605 -64.0775 -16.8034 -3.1222e-09 6.16975e-10 -7.59599e-10 -5.33412e-09 1.29543e-09 -1.447e-09 -3.12219e-09 6.16972e-10 -7.59598e-10 7.73091 5.47488 0.417314 -3.1222e-09 6.16975e-10 -7.59589e-10 2.90554 0.965183 0.102902 -3.1222e-09 6.16978e-10 -7.59593e-10 10.2786 0.731801 0.0259123 -3.12221e-09 6.16979e-10 -7.59583e-10 2.22167 -0.733487 -0.20892 -4.26781e-13 1.13544e-12 5.58755e-13 20.9023 39.4035 -112.953 16.417 -9.08032 -30.5581 0.000334686 -0.528733 0.0743107 4.18595e-09 5.84318e-09 -2.51427e-09 7.23538e-09 1.01162e-08 -4.36379e-09 4.18594e-09 5.84318e-09 -2.51426e-09 -7.73091 5.47488 -0.417314 4.18595e-09 5.84318e-09 -2.51427e-09 -2.90554 0.965183 -0.102902 4.18594e-09 5.84318e-09 -2.51427e-09 -10.2786 0.731801 -0.0259123 4.18595e-09 5.84318e-09 -2.51428e-09 -2.22167 -0.733487 0.20892 -2.03217e-16 0.0 -3.88251e-19 0.827608 -18.2821 -8.06545 0.456943 9.38718 0.578097 -1.52023 -4.11887 -16.2034 2.03217e-16 0.0 3.88251e-19 9.60303 -43.8364 -10.4094 0.278281 34.201 -0.504304 -0.519707 -9.38528 -4.94929
-42.8211 83.0555 -32.4471 -158.163 65.8084 -140.044 -15.4852 22.0091 6.0825 -4.39164 -2.08797 1.22915 -0.272913 -4.13771 -4.00455 13.2805 33.5417 -7.06722 -0.0 0.0 0.0 -0.0 0.0 0.0 -2.63894e-13 9.7961e-13 4.51688e-13 -0.688723 55.3202 50.4305 -26.4513 -24.6526 58.726 -9.65399 -62.6831 -15.789 -1.96583e-09 4.45437e-10 -5.51136e-10 -3.35741e-09 9.53171e-10 -1.03396e-09 -1.96582e-09 4.45435e-10 -5.51133e-10 7.73091 5.47488 0.417314 -1.96583e-09 4.45437e-10 -5.51127e-10 2.90554 0.965183 0.102902 -1.96583e-09 4.4544e-10 -5.5113e-10 10.2786 0.731801 0.0259123 -1.96583e-09 4.45441e-10 -5.5112e-10 2.22167 -0.733487 -0.20892 -2.64046e-13 9.7961e-13 4.51539e-13 20.9944 39.3623 -113.006 16.4053 -9.06933 -30.533 0.000431119 -0.592873 0.0833259 2.83607e-09 5.07692e-09 -2.52544e-09 4.90018e-09 8.78769e-09 -4.38023e-09 2.83606e-09 5.07691e-09 -2.52544e-09 -7.73091 5.47488 -0.417314 2.83608e-09 5.07692e-09 -2.52545e-09 -2.90554 0.965183 -0.102902 2.83606e-09 5.07692e-09 -2.52545e-09 -10.2786 0.731801 -0.0259123 2.83608e-09 5.07692e-09 -2.52545e-09 -2.22167 -0.733487 0.20892 -2.03217e-16 0.0 -3.88251e-19 0.84311 -18.2829 -8.12193 0.4576 9.38994 0.579251 -1.53334 -4.18252 -16.1265 2.03217e-16 0.0 3.88251e-19 9.51974 -43.8659 -10.6383 0.27779 34.2104 -0.505693 -0.474632 -9.38609 -4.78474
-42.8438 83.0463 -32.4289 -158.208 65.7195 -140.132 -15.4282 22.1281 6.05769 -4.44629 -2.19987 1.21522 -0.288991 -4.21159 -4.07155 13.6599 33.7302 -7.30166 -0.0 0.0 0.0 -0.0 0.0 0.0 -3.93268e-14 1.05749e-12 4.80727e-13 -1.19801 55.4547 51.0711 -26.3981 -24.5023 58.4883 -8.9042 -61.4081 -14.9409 -4.23066e-10 2.54937e-11 -5.61829e-11 -7.30515e-10 1.81848e-10 -1.14291e-10 -4.23055e-10 2.54926e-11 -5.61805e-11 7.73091 5.47488 0.417314 -4.23068e-10 2.54942e-11 -5.6173e-11 2.90554 0.965183 0.102902 -4.23062e-10 2.54968e-11 -5.61776e-11 10.2786 0.731801 0.0259123 -4.23068e-10 2.54974e-11 -5.61679e-11 2.22167 -0.733487 -0.20892 -3.94508e-14 1.05748e-12 4.80561e-13 20.9855 39.3732 -113.056 16.3633 -9.02928 -30.443 0.000526367 -0.649481 0.0912826 1.1082e-09 4.92418e-09 -3.0499e-09 1.90913e-09 8.51712e-09 -5.28334e-09 1.10819e-09 4.92418e-09 -3.0499e-09 -7.73091 5.47488 -0.417314 1.10821e-09 4.92418e-09 -3.0499e-09 -2.90554 0.965183 -0.102902 1.10819e-09 4.92418e-09 -3.0499e-09 -10.2786 0.731801 -0.0259123 1.10821e-09 4.92418e-09 -3.04991e-09 -2.22167 -0.733487 0.20892 -2.03217e-16 0.0 -3.88251e-19 0.859165 -18.2737 -8.22883 0.458287 9.39035 0.58066 -1.55421 -4.26312 -16.0802 2.03217e-16 0.0 3.88251e-19 9.41952 -43.8963 -10.9256 0.277373 34.2019 -0.506693 -0.439862 -9.37647 -4.6657
-42.864 83.0407 -32.3886 -158.042 65.621 -139.963 -15.3679 22.267 6.02501 -4.4956 -2.3294 1.19755 -0.321006 -4.31634 -4.15605 14.0979 33.9886 -7.5844 -0.0 0.0 0.0 -0.0 0.0 0.0 2.37811e-13 1.24918e-12 5.81072e-13 -1.68555 55.6499 51.6334 -26.3537 -24.3783 58.2882 -8.19444 -60.0726 -14.1277 1.49993e-09 -5.78743e-10 6.37747e-10 2.54011e-09 -9.11871e-10 1.16273e-09 1.49994e-09 -5.78743e-10 6.37747e-10 7.73091 5.47488 0.417314 1.49993e-09 -5.78741e-10 6.37758e-10 2.90554 0.965183 0.102902 1.49994e-09 -5.7874e-10 6.37752e-10 10.2786 0.731801 0.0259123 1.49993e-09 -5.78741e-10 6.37761e-10 2.22167 -0.733487 -0.20892 2.37732e-13 1.24914e-12 5.80877e-13 20.9109 39.4179 -113.106 16.2988 -8.96796 -30.3058 0.000614301 -0.69976 0.0983499 -9.72217e-10 5.05636e-09 -3.86741e-09 -1.69288e-09 8.73716e-09 -6.69235e-09 -9.72225e-10 5.05636e-09 -3.86741e-09 -7.73091 5.47488 -0.417314 -9.72213e-10 5.05636e-09 -3.86741e-09 -2.90554 0.965183 -0.102902 -9.72224e-10 5.05636e-09 -3.86741e-09 -10.2786 0.731801 -0.0259123 -9.72211e-10 5.05636e-09 -3.86742e-09 -2.22167 -0.733487 0.20892 -2.03217e-16 0.0 -3.88251e-19 0.875947 -18.2561 -8.37638 0.459007 9.38959 0.582342 -1.58098 -4.35857 -16.0502 2.03217e-16 0.0 3.88251e-19 9.30209 -43.9279 -11.266 0.276952 34.1822 -0.507525 -0.410428 -9.3625 -4.57066
